<svg xmlns="http://www.w3.org/2000/svg" viewBox="0 0 420 360" fill="none">
  <defs>
    <linearGradient id="bg2" x1="0" y1="0" x2="1" y2="1">
      <stop offset="0" stop-color="#edfbf4"/>
      <stop offset="1" stop-color="#d4f4e2"/>
    </linearGradient>
    <linearGradient id="leafA" x1="0" y1="0" x2="1" y2="1">
      <stop offset="0" stop-color="#4acf84"/>
      <stop offset="1" stop-color="#00984d"/>
    </linearGradient>
    <linearGradient id="leafB" x1="0" y1="1" x2="1" y2="0">
      <stop offset="0" stop-color="#72daa0"/>
      <stop offset="1" stop-color="#2fc871"/>
    </linearGradient>
  </defs>

  <rect x="10" y="10" width="400" height="340" rx="40" fill="url(#bg2)"/>

  <g transform="translate(70 50)">
    <path d="M20 240 C -20 170, 30 60, 130 30 C 140 130, 100 220, 40 250 Z" fill="url(#leafA)"/>
    <path d="M120 35 C 90 90, 60 170, 35 240" stroke="#edfbf4" stroke-width="2" stroke-linecap="round" fill="none"/>
  </g>

  <g transform="translate(200 120)">
    <path d="M10 160 C -20 100, 20 30, 100 20 C 110 80, 80 150, 30 170 Z" fill="url(#leafB)" opacity="0.9"/>
    <path d="M95 25 C 70 70, 45 120, 25 165" stroke="#ffffff" stroke-width="1.5" stroke-linecap="round" fill="none" opacity="0.7"/>
  </g>

  <circle cx="340" cy="90" r="22" fill="#ffffff" opacity="0.7"/>
  <circle cx="70" cy="310" r="14" fill="#4acf84" opacity="0.5"/>
  <circle cx="340" cy="290" r="9" fill="#00984d" opacity="0.4"/>

  <g transform="translate(310 200)">
    <circle cx="30" cy="30" r="28" fill="#ffffff" stroke="#2fc871" stroke-width="1.5"/>
    <path d="M18 30 Q 30 10 42 30 Q 30 50 18 30 Z" fill="#2fc871"/>
  </g>
</svg>
