<svg width="20" height="20" viewBox="0 0 20 20" fill="none" xmlns="http://www.w3.org/2000/svg">
<path id="Vector" d="M1.30293 0.00144747H1.28612C1.08975 -0.0034794 0.893283 0.00417482 0.697785 0.0243547C0.522355 0.0357978 0.356927 0.114795 0.232644 0.246485C0.108362 0.378174 0.0338 0.553469 0.0230005 0.739354C0.00390879 0.9465 -0.0033077 1.15468 0.00138904 1.36275V3.00903C-0.00328415 3.2171 0.00393227 3.42529 0.0230005 3.63243C0.0338 3.81832 0.108362 3.99361 0.232644 4.1253C0.356927 4.25698 0.522355 4.33599 0.697785 4.34743C0.89328 4.36766 1.08975 4.37531 1.28612 4.37033H2.95267C3.14904 4.37528 3.34551 4.36764 3.54101 4.34743C3.71644 4.33599 3.88187 4.25698 4.00615 4.1253C4.13043 3.99361 4.20499 3.81832 4.21579 3.63243C4.23489 3.42529 4.24211 3.2171 4.23741 3.00903V1.37293C4.24208 1.16486 4.23486 0.956674 4.21579 0.749527C4.20499 0.563642 4.13043 0.388354 4.00615 0.256665C3.88187 0.124975 3.71644 0.0459701 3.54101 0.034527C3.34551 0.0143162 3.14904 0.00666965 2.95267 0.0116276L1.30293 0.00144747ZM1.30293 7.51532H1.28612C1.08975 7.51037 0.893281 7.51802 0.697785 7.53822C0.522355 7.54966 0.356927 7.62866 0.232644 7.76035C0.108362 7.89204 0.0338 8.06734 0.0230005 8.25322C0.00390879 8.46037 -0.0033077 8.66854 0.00138904 8.87661V18.6347C-0.00328415 18.8428 0.00393227 19.051 0.0230005 19.2581C0.0338 19.444 0.108362 19.6193 0.232644 19.751C0.356927 19.8827 0.522355 19.9617 0.697785 19.9731C0.89328 19.9934 1.08975 20.001 1.28612 19.996H2.95267C3.14904 20.001 3.34551 19.9933 3.54101 19.9731C3.71644 19.9617 3.88187 19.8827 4.00615 19.751C4.13043 19.6193 4.20499 19.444 4.21579 19.2581C4.23488 19.051 4.2421 18.8428 4.23741 18.6347V8.87661C4.24208 8.66854 4.23486 8.46037 4.21579 8.25322C4.20499 8.06734 4.13043 7.89204 4.00615 7.76035C3.88187 7.62866 3.71644 7.54966 3.54101 7.53822C3.34551 7.51799 3.14904 7.51034 2.95267 7.51532H1.30293ZM8.6055 0.00144747H10.4401C15.8792 0.00144747 20 4.25837 20 9.99873C20 15.7391 15.8865 19.9986 10.4401 19.9986H8.6055C8.40913 20.0035 8.21266 19.9958 8.01716 19.9757C7.84173 19.9642 7.6763 19.8852 7.55202 19.7535C7.42774 19.6218 7.35318 19.4465 7.34238 19.2607C7.32328 19.0535 7.31607 18.8453 7.32076 18.6373V17.0317C7.31609 16.8236 7.32331 16.6154 7.34238 16.4083C7.35318 16.2224 7.42774 16.0471 7.55202 15.9154C7.6763 15.7837 7.84173 15.7047 8.01716 15.6933C8.21266 15.6731 8.40913 15.6655 8.6055 15.6704H10.4401C11.8591 15.6704 13.22 15.0731 14.2233 14.0099C15.2267 12.9468 15.7904 11.5048 15.7904 10.0013C15.7904 8.49774 15.2267 7.05578 14.2233 5.99261C13.22 4.92945 11.8591 4.33217 10.4401 4.33217H8.6055C8.40913 4.33712 8.21266 4.32947 8.01716 4.30927C7.84173 4.29782 7.6763 4.21882 7.55202 4.08713C7.42774 3.95544 7.35318 3.78015 7.34238 3.59427C7.32328 3.38712 7.31607 3.17894 7.32076 2.97087V1.37293C7.31609 1.16486 7.32331 0.956674 7.34238 0.749527C7.35318 0.563642 7.42774 0.388354 7.55202 0.256665C7.6763 0.124975 7.84173 0.0459701 8.01716 0.034527C8.21266 0.0143162 8.40913 0.00666965 8.6055 0.0116276V0.00144747Z" fill="#00AB6D"/>
</svg>
