<svg width="44" height="44" viewBox="0 0 44 44" fill="none" xmlns="http://www.w3.org/2000/svg">
<rect width="44" height="44" rx="18" fill="#F8F8FA"/>
<path d="M30 30.0001L25.95 25.9501M25.95 25.9501C26.6 25.3001 27.1157 24.5284 27.4675 23.679C27.8193 22.8297 28.0004 21.9194 28.0004 21.0001C28.0004 20.0808 27.8193 19.1705 27.4675 18.3212C27.1157 17.4719 26.6 16.7002 25.95 16.0501C25.3 15.4001 24.5282 14.8844 23.6789 14.5326C22.8296 14.1808 21.9193 13.9998 21 13.9998C20.0807 13.9998 19.1704 14.1808 18.3211 14.5326C17.4718 14.8844 16.7 15.4001 16.05 16.0501C14.7372 17.3629 13.9996 19.1435 13.9996 21.0001C13.9996 22.8567 14.7372 24.6373 16.05 25.9501C17.3628 27.2629 19.1434 28.0005 21 28.0005C22.8566 28.0005 24.6372 27.2629 25.95 25.9501Z" stroke="#144000" stroke-width="2" stroke-linecap="round" stroke-linejoin="round"/>
</svg>
