<svg width="26" height="26" viewBox="0 0 26 26" fill="none" xmlns="http://www.w3.org/2000/svg">
<g id="mdi:instagram">
<path id="Vector" d="M8.45 2.16663H17.55C21.0167 2.16663 23.8333 4.98329 23.8333 8.44996V17.55C23.8333 19.2164 23.1713 20.8146 21.993 21.9929C20.8146 23.1713 19.2164 23.8333 17.55 23.8333H8.45C4.98333 23.8333 2.16666 21.0166 2.16666 17.55V8.44996C2.16666 6.78352 2.82866 5.18533 4.00701 4.00697C5.18536 2.82862 6.78355 2.16663 8.45 2.16663ZM8.23333 4.33329C7.19899 4.33329 6.20701 4.74418 5.47561 5.47558C4.74422 6.20697 4.33333 7.19895 4.33333 8.23329V17.7666C4.33333 19.9225 6.0775 21.6666 8.23333 21.6666H17.7667C18.801 21.6666 19.793 21.2557 20.5244 20.5243C21.2558 19.7929 21.6667 18.801 21.6667 17.7666V8.23329C21.6667 6.07746 19.9225 4.33329 17.7667 4.33329H8.23333ZM18.6875 5.95829C19.0466 5.95829 19.3911 6.10096 19.645 6.35492C19.899 6.60887 20.0417 6.95331 20.0417 7.31246C20.0417 7.67161 19.899 8.01604 19.645 8.27C19.3911 8.52395 19.0466 8.66663 18.6875 8.66663C18.3283 8.66663 17.9839 8.52395 17.73 8.27C17.476 8.01604 17.3333 7.67161 17.3333 7.31246C17.3333 6.95331 17.476 6.60887 17.73 6.35492C17.9839 6.10096 18.3283 5.95829 18.6875 5.95829ZM13 7.58329C14.4366 7.58329 15.8143 8.15398 16.8302 9.1698C17.846 10.1856 18.4167 11.5634 18.4167 13C18.4167 14.4365 17.846 15.8143 16.8302 16.8301C15.8143 17.8459 14.4366 18.4166 13 18.4166C11.5634 18.4166 10.1857 17.8459 9.16984 16.8301C8.15401 15.8143 7.58333 14.4365 7.58333 13C7.58333 11.5634 8.15401 10.1856 9.16984 9.1698C10.1857 8.15398 11.5634 7.58329 13 7.58329ZM13 9.74996C12.138 9.74996 11.3114 10.0924 10.7019 10.7019C10.0924 11.3114 9.75 12.138 9.75 13C9.75 13.8619 10.0924 14.6886 10.7019 15.2981C11.3114 15.9075 12.138 16.25 13 16.25C13.8619 16.25 14.6886 15.9075 15.2981 15.2981C15.9076 14.6886 16.25 13.8619 16.25 13C16.25 12.138 15.9076 11.3114 15.2981 10.7019C14.6886 10.0924 13.8619 9.74996 13 9.74996Z" fill="#00AB6D"/>
</g>
</svg>
