<svg width="30" height="30" viewBox="0 0 30 30" fill="none" xmlns="http://www.w3.org/2000/svg">
<path d="M10.3125 25.8494C11.348 25.8494 12.1875 25.0277 12.1875 24.0141C12.1875 23.0004 11.348 22.1787 10.3125 22.1787C9.27697 22.1787 8.4375 23.0004 8.4375 24.0141C8.4375 25.0277 9.27697 25.8494 10.3125 25.8494Z" fill="#00AB6D"/>
<path d="M23.4375 25.8494C24.473 25.8494 25.3125 25.0277 25.3125 24.0141C25.3125 23.0004 24.473 22.1787 23.4375 22.1787C22.402 22.1787 21.5625 23.0004 21.5625 24.0141C21.5625 25.0277 22.402 25.8494 23.4375 25.8494Z" fill="#00AB6D"/>
<path d="M26.7656 7.08157C26.6339 6.92387 26.468 6.79686 26.2799 6.70975C26.0918 6.62265 25.8862 6.57764 25.6781 6.57799H7.84512L7.48594 4.58318C7.44764 4.3707 7.33408 4.17822 7.1652 4.03955C6.99632 3.90089 6.78293 3.82491 6.5625 3.82495H2.8125C2.56386 3.82495 2.3254 3.92164 2.14959 4.09373C1.97377 4.26583 1.875 4.49925 1.875 4.74263C1.875 4.98601 1.97377 5.21943 2.14959 5.39153C2.3254 5.56363 2.56386 5.66031 2.8125 5.66031H5.77617L8.45156 20.5026C8.48986 20.7151 8.60342 20.9076 8.7723 21.0463C8.94118 21.1849 9.15457 21.2609 9.375 21.2609H24.375C24.6236 21.2609 24.8621 21.1642 25.0379 20.9921C25.2137 20.82 25.3125 20.5866 25.3125 20.3432C25.3125 20.0998 25.2137 19.8664 25.0379 19.6943C24.8621 19.5222 24.6236 19.4255 24.375 19.4255H10.1613L9.83086 17.5901H23.9906C24.3157 17.5897 24.6307 17.4794 24.8823 17.2778C25.1339 17.0762 25.3065 16.7957 25.3711 16.4838L27.0586 8.22465C27.0993 8.02477 27.0941 7.81855 27.0434 7.62087C26.9927 7.42319 26.8979 7.23899 26.7656 7.08157Z" fill="#00AB6D"/>
</svg>
