<svg width="24" height="24" viewBox="0 0 24 24" fill="none" xmlns="http://www.w3.org/2000/svg">
<g id="kaspi.kz-logo 1" clip-path="url(#clip0_291_2299)">
<g id="Group">
<path id="Vector" fill-rule="evenodd" clip-rule="evenodd" d="M11.5179 0.379258C5.8227 0.604858 1.0947 4.86726 0.341101 10.4617C-0.174899 14.2873 1.2531 18.0937 4.1763 20.6809C4.4643 20.9353 5.1147 21.4465 5.1531 21.4465C5.2371 21.4465 5.4915 20.3233 5.5755 19.5697C5.6955 18.5041 5.6427 17.1529 5.4363 16.0801C5.3859 15.8161 5.3715 15.7561 5.2107 15.1225C5.0427 14.4673 4.9971 14.1145 5.0139 13.6225C5.0307 13.1257 5.0763 12.9049 5.3235 12.0889C5.5155 11.4553 5.5755 11.0689 5.6139 10.2145C5.6955 8.40966 5.8035 8.06886 6.5163 7.34166C7.1571 6.69126 7.2219 6.52086 7.0851 5.89926C6.9051 5.08806 7.0323 4.58406 7.5483 4.04886C8.0595 3.51846 8.6235 3.22566 9.1347 3.22086C9.9411 3.21366 10.0683 3.96726 9.4179 4.91046C8.8635 5.71926 8.7627 5.91366 8.7459 6.22806C8.7291 6.54486 8.8515 6.73206 9.3387 7.13526C10.1091 7.77366 10.2939 8.11206 10.9923 10.1521C11.2515 10.9081 11.5971 11.1841 12.4467 11.3161C13.5147 11.4817 14.4843 11.2897 15.2787 10.7521C15.8931 10.3369 16.0251 9.93846 15.7659 9.27366C15.5763 8.78646 15.5979 8.48886 15.8619 7.97046C16.2963 7.11606 16.9827 6.59286 17.6643 6.59526C18.1491 6.59526 18.4251 6.83046 18.4227 7.23846C18.4203 7.49766 18.3987 7.55526 17.9715 8.31846C17.4531 9.24726 17.3523 9.54006 17.4747 9.75126C17.6451 10.0417 18.3339 9.80406 19.1283 9.18246C19.8075 8.65206 19.9923 8.44326 20.4051 7.74486C20.5371 7.52166 20.5851 7.45686 20.6859 7.35366C21.2307 6.80886 21.9123 7.22166 21.7731 8.01126C21.6795 8.54406 21.4203 8.90406 20.1099 10.3177C18.9531 11.5657 18.5499 12.1609 18.5235 12.6601C18.4755 13.5289 18.7515 15.0145 19.1907 16.2505C19.6227 17.4697 20.4891 19.1065 20.8899 19.4593L20.9619 19.5217L20.9931 19.4857C22.4499 17.7361 23.3259 15.7969 23.6331 13.6489C24.6099 6.80166 19.4259 0.660058 12.4347 0.381658C12.0291 0.362458 11.9451 0.362458 11.5179 0.379258ZM11.7627 12.8665C10.6347 13.0081 10.3227 13.9297 10.3251 17.1049C10.3275 22.3393 10.4739 23.1457 11.4891 23.5513C11.8971 23.7145 13.3947 23.6113 14.6163 23.3377C15.0315 23.2441 15.4347 22.9705 15.5619 22.6945C15.7803 22.2265 15.6387 20.3761 15.1323 17.0977C15.0891 16.8241 15.0099 16.2985 14.9547 15.9313C14.8299 15.0913 14.7915 14.9065 14.6859 14.5849C14.3715 13.6369 13.6107 13.0801 12.3747 12.8953C12.2115 12.8713 11.8587 12.8545 11.7627 12.8665ZM7.6491 17.2561C7.2123 17.4505 6.9987 20.1169 7.2843 21.8113C7.3443 22.1713 7.4259 22.4617 7.5219 22.6729L7.5699 22.7761L7.7187 22.8337C7.8003 22.8649 7.9515 22.9201 8.0523 22.9561L8.2395 23.0233L8.2803 22.9753C8.4915 22.7281 8.5635 21.9337 8.4915 20.7049C8.3619 18.4921 8.0211 17.0929 7.6491 17.2561ZM17.3259 17.5393C16.9035 17.8465 16.9395 20.0713 17.3907 21.4465C17.5923 22.0585 17.7339 22.1593 18.0891 21.9481C18.6723 21.6001 19.2147 21.2017 19.2603 21.0889C19.3971 20.7481 19.3611 20.4577 19.1019 19.7761C18.5163 18.2569 17.7219 17.2537 17.3259 17.5393Z" fill="#F34434"/>
</g>
</g>
<defs>
<clipPath id="clip0_291_2299">
<rect width="24" height="24" fill="white"/>
</clipPath>
</defs>
</svg>
