<svg width="24" height="24" viewBox="0 0 24 24" fill="none" xmlns="http://www.w3.org/2000/svg">
<g id="ph:coin-fill">
<path id="Vector" d="M19.4606 5.985C17.5172 5.01375 14.9372 4.5 12 4.5C9.06281 4.5 6.48281 5.01375 4.53937 5.985C2.59594 6.95625 1.5 8.32312 1.5 9.75V14.25C1.5 15.6769 2.60812 17.0484 4.53937 18.015C6.47062 18.9816 9.06281 19.5 12 19.5C14.9372 19.5 17.5172 18.9862 19.4606 18.015C21.4041 17.0438 22.5 15.6769 22.5 14.25V9.75C22.5 8.32312 21.3919 6.95156 19.4606 5.985ZM11.25 14.985V17.985C9.46875 17.9269 7.96875 17.6644 6.75 17.2828V14.3484C8.21919 14.7399 9.72991 14.9542 11.25 14.9869V14.985ZM12.75 14.985C14.2701 14.9523 15.7808 14.738 17.25 14.3466V17.2819C16.0312 17.6634 14.5312 17.9259 12.75 17.9841V14.985ZM3 14.25V12.5184C3.47199 12.9102 3.98871 13.2447 4.53937 13.515C4.76719 13.6284 5.00813 13.7353 5.25 13.8366V16.6875C3.76594 15.9525 3 15.0272 3 14.25ZM18.75 16.6875V13.8366C18.9947 13.7353 19.2328 13.6284 19.4606 13.515C20.0113 13.2447 20.528 12.9102 21 12.5184V14.25C21 15.0272 20.2341 15.9525 18.75 16.6875Z" fill="#EDE300"/>
</g>
</svg>
