<svg width="100" height="100" viewBox="0 0 100 100" fill="none" xmlns="http://www.w3.org/2000/svg">
    <circle cx="50" cy="50" r="50" fill="#202020"/>
    <path d="M33.2361 60.356H29.1445V49.1536C29.1445 48.8447 29.1489 48.4651 29.1577 48.0149C29.1665 47.5558 29.1798 47.0879 29.1974 46.6113C29.2151 46.1257 29.2327 45.6888 29.2504 45.3003C29.1533 45.4151 28.9547 45.6137 28.6545 45.8962C28.3632 46.1699 28.0896 46.417 27.8336 46.6377L25.609 48.4253L23.636 45.9624L29.8728 40.9968H33.2361V60.356ZM52.0655 50.6764C52.0655 52.2389 51.942 53.6337 51.6948 54.8607C51.4564 56.0878 51.068 57.1294 50.5295 57.9857C49.9999 58.842 49.3025 59.4953 48.4374 59.9455C47.5723 60.3957 46.5218 60.6208 45.2859 60.6208C43.7322 60.6208 42.4566 60.228 41.4591 59.4423C40.4616 58.6478 39.7244 57.509 39.2478 56.026C38.7711 54.5341 38.5327 52.7509 38.5327 50.6764C38.5327 48.5842 38.749 46.7966 39.1815 45.3136C39.6229 43.8217 40.338 42.6785 41.3267 41.884C42.3154 41.0895 43.6351 40.6923 45.2859 40.6923C46.8307 40.6923 48.1019 41.0895 49.0994 41.884C50.1058 42.6697 50.8517 43.8085 51.3373 45.3003C51.8228 46.7834 52.0655 48.5754 52.0655 50.6764ZM42.5979 50.6764C42.5979 52.1506 42.6773 53.3821 42.8362 54.3708C43.0039 55.3507 43.282 56.0878 43.6704 56.5821C44.0588 57.0765 44.5973 57.3236 45.2859 57.3236C45.9656 57.3236 46.4997 57.0809 46.8881 56.5954C47.2854 56.101 47.5678 55.3639 47.7356 54.384C47.9033 53.3953 47.9872 52.1595 47.9872 50.6764C47.9872 49.2022 47.9033 47.9707 47.7356 46.982C47.5678 45.9933 47.2854 45.2518 46.8881 44.7574C46.4997 44.2543 45.9656 44.0027 45.2859 44.0027C44.5973 44.0027 44.0588 44.2543 43.6704 44.7574C43.282 45.2518 43.0039 45.9933 42.8362 46.982C42.6773 47.9707 42.5979 49.2022 42.5979 50.6764ZM67.5846 50.6764C67.5846 52.2389 67.461 53.6337 67.2139 54.8607C66.9755 56.0878 66.5871 57.1294 66.0486 57.9857C65.5189 58.842 64.8216 59.4953 63.9564 59.9455C63.0913 60.3957 62.0408 60.6208 60.805 60.6208C59.2513 60.6208 57.9757 60.228 56.9782 59.4423C55.9806 58.6478 55.2435 57.509 54.7668 56.026C54.2901 54.5341 54.0518 52.7509 54.0518 50.6764C54.0518 48.5842 54.2681 46.7966 54.7006 45.3136C55.142 43.8217 55.857 42.6785 56.8457 41.884C57.8344 41.0895 59.1542 40.6923 60.805 40.6923C62.3498 40.6923 63.621 41.0895 64.6185 41.884C65.6249 42.6697 66.3708 43.8085 66.8563 45.3003C67.3419 46.7834 67.5846 48.5754 67.5846 50.6764ZM58.1169 50.6764C58.1169 52.1506 58.1964 53.3821 58.3553 54.3708C58.523 55.3507 58.8011 56.0878 59.1895 56.5821C59.5779 57.0765 60.1164 57.3236 60.805 57.3236C61.4847 57.3236 62.0188 57.0809 62.4072 56.5954C62.8044 56.101 63.0869 55.3639 63.2546 54.384C63.4224 53.3953 63.5062 52.1595 63.5062 50.6764C63.5062 49.2022 63.4224 47.9707 63.2546 46.982C63.0869 45.9933 62.8044 45.2518 62.4072 44.7574C62.0188 44.2543 61.4847 44.0027 60.805 44.0027C60.1164 44.0027 59.5779 44.2543 59.1895 44.7574C58.8011 45.2518 58.523 45.9933 58.3553 46.982C58.1964 47.9707 58.1169 49.2022 58.1169 50.6764ZM70.6169 52.992C71.1863 52.992 71.6183 53.1906 71.9129 53.5879C72.2076 53.9851 72.3549 54.5429 72.3549 55.2613C72.3549 55.9796 72.2158 56.5407 71.9378 56.9446C71.6597 57.3485 71.2194 57.5504 70.6169 57.5504C70.0575 57.5504 69.6321 57.3485 69.3408 56.9446C69.0495 56.5407 68.9038 55.9796 68.9038 55.2613C68.9038 54.5429 69.0395 53.9851 69.311 53.5879C69.5857 53.1906 70.0211 52.992 70.6169 52.992ZM70.6269 54.0298C70.4646 54.0298 70.3455 54.1324 70.2693 54.3377C70.1932 54.5429 70.1551 54.8541 70.1551 55.2712C70.1551 55.6883 70.1932 56.0012 70.2693 56.2097C70.3455 56.4183 70.4646 56.5225 70.6269 56.5225C70.7891 56.5225 70.9082 56.4199 70.9844 56.2147C71.0638 56.0061 71.1036 55.6916 71.1036 55.2712C71.1036 54.8541 71.0638 54.5429 70.9844 54.3377C70.9082 54.1324 70.7891 54.0298 70.6269 54.0298ZM75.7712 53.0963L71.7441 60.356H70.5524L74.5795 53.0963H75.7712ZM75.7017 55.8919C76.2711 55.8919 76.7031 56.0905 76.9977 56.4878C77.2923 56.885 77.4396 57.4428 77.4396 58.1612C77.4396 58.8762 77.3006 59.4357 77.0225 59.8395C76.7444 60.2434 76.3042 60.4453 75.7017 60.4453C75.1422 60.4453 74.7168 60.2434 74.4255 59.8395C74.1342 59.4357 73.9885 58.8762 73.9885 58.1612C73.9885 57.4428 74.1243 56.885 74.3957 56.4878C74.6705 56.0905 75.1058 55.8919 75.7017 55.8919ZM75.7116 56.9297C75.5494 56.9297 75.4302 57.0323 75.3541 57.2376C75.2779 57.4428 75.2399 57.754 75.2399 58.1711C75.2399 58.5882 75.2779 58.901 75.3541 59.1096C75.4302 59.3182 75.5494 59.4224 75.7116 59.4224C75.8738 59.4224 75.993 59.3198 76.0691 59.1146C76.1486 58.906 76.1883 58.5915 76.1883 58.1711C76.1883 57.754 76.1486 57.4428 76.0691 57.2376C75.993 57.0323 75.8738 56.9297 75.7116 56.9297Z" fill="white"/>
    <g clip-path="url(#clip0_291_1000)">
        <path d="M5.23903 46.3452L7.34278 46.8126L6.98848 44.6188L7.94444 44.5957L7.90281 46.6479L9.80819 45.5559L10.178 46.4834L8.14771 47.2171L9.94697 48.3435L9.35837 49.185L7.77545 47.6718L7.31666 49.6614L6.39663 49.395L7.27176 47.3862L5.11658 47.3315L5.23903 46.3452Z" fill="white"/>
        <path d="M16.8183 34.9934L16.4575 35.8378L13.0329 34.3752L11.4018 38.1899L14.8264 39.6524L14.4648 40.4968L7.19837 37.3934L7.55921 36.549L10.6557 37.8714L12.2876 34.0568L9.19029 32.7344L9.55194 31.89L16.8183 34.9934Z" fill="white"/>
        <path d="M15.9098 24.7026C16.3563 24.1553 16.8102 23.8492 17.2723 23.7841C17.7344 23.719 18.2351 23.9059 18.7743 24.3448L21.8964 26.8864L21.4834 27.3932L20.6953 26.9745L20.6679 27.008C20.7309 27.2729 20.7627 27.5218 20.7634 27.7546C20.7614 27.9852 20.7146 28.2164 20.6231 28.4485C20.531 28.6755 20.3769 28.9216 20.1607 29.1868C19.9331 29.466 19.6816 29.6746 19.4063 29.8128C19.1332 29.9482 18.8464 29.998 18.5455 29.9621C18.2471 29.9235 17.9455 29.7802 17.641 29.5323C17.1825 29.1593 16.9784 28.6913 17.029 28.1282C17.0788 27.5651 17.3953 26.9031 17.9783 26.1423L18.59 25.3235L18.3093 25.0949C17.9125 24.772 17.5651 24.6308 17.2674 24.6715C16.9686 24.7122 16.6935 24.8874 16.4412 25.1973C16.2453 25.4375 16.0934 25.6948 15.9857 25.9695C15.8779 26.244 15.7922 26.5177 15.7277 26.7905L15.0257 26.5743C15.0877 26.2812 15.1906 25.97 15.3334 25.6406C15.4771 25.3111 15.6689 24.9984 15.9098 24.7026ZM19.0736 25.731L18.5327 26.4543C18.0885 27.0448 17.8533 27.5244 17.8269 27.8931C17.8005 28.2619 17.9383 28.569 18.24 28.8146C18.5026 29.0285 18.7616 29.1069 19.0172 29.0502C19.2726 28.9934 19.5073 28.8337 19.7213 28.5713C20.0535 28.1637 20.2123 27.7379 20.1977 27.294C20.1831 26.8502 19.9494 26.444 19.4968 26.0756L19.0736 25.731Z" fill="white"/>
        <path d="M25.4799 16.4223L23.9145 17.5873L26.9967 21.725L26.2855 22.2539L23.2034 18.1159L21.6597 19.2639L21.2047 18.653L25.0248 15.8113L25.4799 16.4223Z" fill="white"/>
        <path d="M29.2768 12.7415L30.1615 12.3638L32.7154 15.0086C32.8643 15.1644 33.0054 15.3153 33.1387 15.4621C33.2706 15.6057 33.393 15.7452 33.506 15.8815C33.6189 16.0169 33.7198 16.1523 33.8086 16.2861L33.8434 16.2714C33.819 16.0862 33.7925 15.8407 33.764 15.5364C33.734 15.228 33.7085 14.9115 33.6875 14.5876L33.4768 10.9476L34.3666 10.5675L34.6659 17.8238C34.683 18.2118 34.6602 18.5662 34.5974 18.8867C34.5379 19.2058 34.4172 19.4825 34.2352 19.7168C34.0547 19.9546 33.7955 20.1455 33.4575 20.2898C33.3017 20.3564 33.1599 20.4052 33.0322 20.4363C32.9058 20.4706 32.7946 20.4947 32.6985 20.5083L32.416 19.8477C32.496 19.8331 32.5902 19.8105 32.6985 19.7799C32.8103 19.7478 32.9225 19.7078 33.0351 19.6596C33.2405 19.5719 33.4008 19.4564 33.516 19.3133C33.6358 19.1721 33.7186 19.0035 33.7642 18.8078C33.8098 18.6121 33.8285 18.3946 33.8202 18.155L33.7913 17.2634L29.2768 12.7415Z" fill="white"/>
        <path d="M42.4091 8.05311C43.14 7.94543 43.7599 8.11021 44.2689 8.5491C44.7779 8.98717 45.1068 9.70996 45.2556 10.7183C45.3539 11.3847 45.3365 11.9591 45.2036 12.4404C45.0707 12.9225 44.8395 13.3059 44.51 13.5906C44.1841 13.8753 43.7752 14.054 43.2832 14.1266C42.973 14.1723 42.6943 14.1714 42.4469 14.1241C42.1995 14.0768 41.9818 13.996 41.7937 13.8818C41.6056 13.7676 41.4443 13.6363 41.3096 13.4894L41.2455 13.4984C41.2766 13.6363 41.3138 13.8019 41.357 13.9952C41.4037 14.1886 41.4378 14.3583 41.4593 14.5043L41.8141 16.9092L40.921 17.0405L39.6709 8.56542L40.4035 8.45773L40.6489 9.30614L40.6916 9.29961C40.7794 9.10464 40.8945 8.92191 41.037 8.75223C41.1789 8.57765 41.3612 8.43081 41.5839 8.31089C41.8096 8.1869 42.0847 8.10042 42.4091 8.05311ZM42.3644 8.82402C41.958 8.88357 41.6416 9.01002 41.4151 9.20417C41.1922 9.39669 41.0469 9.65856 40.9791 9.98895C40.9107 10.3153 40.9077 10.715 40.9699 11.1857L40.9951 11.357C41.0681 11.8522 41.1833 12.2625 41.3407 12.5888C41.5017 12.9151 41.7201 13.1485 41.9959 13.2896C42.2754 13.4307 42.6271 13.4699 43.0514 13.4071C43.415 13.354 43.7036 13.2113 43.9172 12.9796C44.1306 12.7479 44.2705 12.4485 44.3367 12.0822C44.4058 11.7119 44.4068 11.2983 44.3395 10.8423C44.2376 10.1513 44.0212 9.62267 43.6904 9.25638C43.3625 8.88602 42.9205 8.74162 42.3644 8.82402Z" fill="white"/>
        <path d="M53.6111 7.40788C54.3128 7.48946 54.8152 7.70727 55.1188 8.06132C55.4222 8.41537 55.5338 8.93828 55.4536 9.62842L54.989 13.6257L54.3393 13.5499L54.2685 12.6615L54.2255 12.6558C54.036 12.8516 53.8431 13.0123 53.6471 13.1379C53.4515 13.2603 53.2312 13.3451 52.9862 13.3932C52.7452 13.4381 52.4548 13.4406 52.1147 13.4006C51.7567 13.359 51.4454 13.2594 51.1807 13.102C50.9197 12.9446 50.7233 12.73 50.5918 12.4575C50.4638 12.1851 50.4225 11.8539 50.4678 11.4639C50.536 10.8774 50.8211 10.454 51.3229 10.1929C51.8249 9.93189 52.5536 9.84298 53.5091 9.92456L54.5289 9.9996L54.5707 9.63984C54.6297 9.13243 54.5619 8.7637 54.3672 8.53447C54.1726 8.30524 53.8766 8.16737 53.4793 8.12168C53.1714 8.08579 52.8727 8.0964 52.5831 8.1535C52.2935 8.21061 52.0164 8.28484 51.7516 8.37784L51.5564 7.66975C51.8371 7.56451 52.1548 7.48375 52.5097 7.42664C52.8646 7.37036 53.2318 7.36383 53.6111 7.40788ZM54.4452 10.6261L53.5441 10.5592C52.807 10.5029 52.2758 10.5625 51.9506 10.7387C51.6254 10.9149 51.4403 11.1964 51.3954 11.583C51.3563 11.9191 51.4295 12.1794 51.6148 12.3637C51.8001 12.5489 52.061 12.6607 52.3975 12.6998C52.9202 12.7602 53.3647 12.6647 53.7313 12.4135C54.0978 12.163 54.3148 11.7478 54.3822 11.1678L54.4452 10.6261Z" fill="white"/>
        <path d="M64.2059 15.9712L63.3543 15.6408L65.226 10.822L63.5479 10.171C63.143 11.0145 62.7679 11.7267 62.4225 12.3075C62.0818 12.8859 61.758 13.3419 61.4509 13.6748C61.1485 14.0052 60.8522 14.2205 60.5621 14.3209C60.2767 14.4188 59.9845 14.409 59.6855 14.2931C59.5948 14.2581 59.5111 14.2197 59.4344 14.1789C59.3577 14.1373 59.2954 14.0941 59.2474 14.0484L59.4937 13.4137C59.5323 13.4439 59.5737 13.4717 59.6181 13.4969C59.6659 13.523 59.7167 13.5467 59.7704 13.5671C59.9216 13.6258 60.0835 13.6169 60.256 13.541C60.4332 13.4635 60.6217 13.3158 60.8216 13.0997C61.0248 12.8851 61.2424 12.5988 61.4742 12.2406C61.7075 11.8793 61.9573 11.4453 62.2237 10.9378C62.4949 10.4288 62.785 9.84634 63.0941 9.18964L66.3494 10.4525L64.2059 15.9712Z" fill="white"/>
        <path d="M71.5944 15.5999L73.0553 16.6784C73.4612 16.9778 73.7613 17.2772 73.956 17.5782C74.1506 17.8784 74.2407 18.1778 74.2263 18.4759C74.2148 18.7763 74.0999 19.0743 73.8815 19.3697C73.6631 19.6651 73.407 19.8723 73.1131 19.9911C72.822 20.112 72.495 20.1303 72.1318 20.0458C71.7715 19.9634 71.3755 19.7629 70.9436 19.4441L68.8001 17.8621L72.32 13.0996L73.046 13.6356L71.5944 15.5999ZM73.1297 18.8685C73.346 18.5759 73.3915 18.2962 73.2663 18.0293C73.1461 17.7618 72.9006 17.4909 72.5295 17.2168L71.1513 16.1995L69.9597 17.8115L71.3424 18.8318C71.6902 19.0885 72.02 19.2334 72.3316 19.2665C72.6453 19.2966 72.9113 19.1639 73.1297 18.8685Z" fill="white"/>
        <path d="M82.0427 21.0006L80.0867 22.5345L82.1256 25.1309L84.0817 23.5969L84.6357 24.3023L79.9751 27.957L79.4211 27.2517L81.526 25.601L79.4871 23.0047L77.3822 24.6553L76.8249 23.9457L81.4854 20.2909L82.0427 21.0006Z" fill="white"/>
        <path d="M83.0003 31.7621L88.5232 29.6201L88.8498 30.4611L86.5721 31.3445L87.1589 32.8552C87.3414 33.3251 87.4325 33.734 87.4323 34.0818C87.4333 34.4328 87.3467 34.7272 87.1723 34.9648C86.9978 35.2024 86.7393 35.3877 86.3967 35.5206C86.0539 35.6534 85.728 35.6949 85.4187 35.6449C85.1106 35.5983 84.8271 35.4456 84.5681 35.1867C84.3105 34.9313 84.0851 34.5553 83.8921 34.0584L83.0003 31.7621ZM84.0072 32.3393L84.5412 33.7139C84.7028 34.1302 84.9058 34.4339 85.1501 34.625C85.3944 34.8161 85.6895 34.8445 86.0356 34.7103C86.3749 34.5787 86.5651 34.3717 86.6061 34.0893C86.6505 33.8055 86.5887 33.4471 86.4204 33.0141L85.8767 31.6142L84.0072 32.3393ZM85.0675 37.0847L90.5905 34.9427L90.9151 35.7787L85.3922 37.9207L85.0675 37.0847Z" fill="white"/>
        <path d="M93.2448 44.8668C93.2857 45.3693 93.2093 45.8091 93.0158 46.186C92.8222 46.563 92.5321 46.863 92.1452 47.0858C91.762 47.3084 91.3028 47.4414 90.7676 47.4848L90.2127 47.5298L89.8816 43.4542C89.1892 43.5212 88.6753 43.7363 88.3397 44.0996C88.004 44.4628 87.8608 44.9477 87.9101 45.5543C87.9404 45.9276 88.0014 46.255 88.0929 46.5366C88.1845 46.8182 88.3092 47.1079 88.4672 47.4059L87.6806 47.4697C87.5235 47.1825 87.4025 46.8943 87.3175 46.6049C87.2328 46.3192 87.1743 45.977 87.142 45.5787C87.0959 45.0116 87.1706 44.5069 87.3661 44.0648C87.5654 43.6259 87.8801 43.2716 88.3101 43.0018C88.7402 42.7321 89.2802 42.5709 89.9303 42.5181C90.566 42.4666 91.1242 42.5279 91.6047 42.7021C92.0892 42.8795 92.4728 43.1519 92.7557 43.5192C93.039 43.89 93.202 44.3392 93.2448 44.8668ZM92.5112 44.9155C92.4725 44.4382 92.2853 44.0703 91.9498 43.8121C91.6143 43.5539 91.1642 43.4206 90.5995 43.4122L90.8532 46.5349C91.2049 46.5027 91.5092 46.422 91.7663 46.2928C92.0272 46.1669 92.2226 45.9902 92.3523 45.763C92.4857 45.5354 92.5387 45.2529 92.5112 44.9155Z" fill="white"/>
        <path d="M92.0794 61.7241L88.5877 60.4297C88.5201 60.4047 88.4328 60.3704 88.3259 60.327C88.2225 60.2848 88.1112 60.2378 87.9921 60.1859C87.8763 60.1353 87.764 60.086 87.655 60.0379C87.5481 59.9945 87.4604 59.9562 87.392 59.9231L90.9759 64.6969L90.5924 65.73L85.038 63.671L85.3293 62.886L88.735 64.1484C88.8431 64.1886 88.981 64.2416 89.1487 64.3076C89.3164 64.3736 89.48 64.44 89.6397 64.5069C89.8027 64.575 89.9293 64.6276 90.0192 64.6648L86.4366 59.9031L86.8221 58.865L92.3765 60.9239L92.0794 61.7241Z" fill="white"/>
        <path d="M87.4202 72.5571L85.4094 71.0955L83.4665 73.7644L85.4773 75.226L84.9495 75.9512L80.1586 72.4687L80.6864 71.7436L82.8502 73.3164L84.793 70.6475L82.6293 69.0747L83.1603 68.3452L87.9511 71.8277L87.4202 72.5571Z" fill="white"/>
        <path d="M78.0801 83.2163L77.5902 82.6329L79.6523 80.9037L76.334 76.9522L77.0255 76.3723L80.8336 80.9073L78.0801 83.2163Z" fill="white"/>
        <path d="M70.9409 88.2379C70.2765 88.5605 69.6355 88.5894 69.018 88.3247C68.4005 88.06 67.869 87.4694 67.4232 86.5527C67.1288 85.947 66.9723 85.3944 66.9538 84.895C66.9353 84.3955 67.0402 83.9602 67.2685 83.5892C67.4935 83.2197 67.8296 82.9264 68.2769 82.7092C68.5589 82.5723 68.8249 82.4892 69.0751 82.4598C69.3253 82.4305 69.5572 82.442 69.7709 82.4943C69.9847 82.5466 70.178 82.6229 70.351 82.7232L70.4093 82.6948C70.3382 82.5732 70.2528 82.4265 70.1532 82.2547C70.0504 82.0843 69.9667 81.9328 69.9022 81.8L68.8391 79.6137L69.6511 79.2195L73.3976 86.9251L72.7314 87.2484L72.2419 86.5133L72.2029 86.5322C72.178 86.7445 72.1232 86.9532 72.0387 87.1584C71.9557 87.3668 71.8262 87.5619 71.65 87.7435C71.4722 87.9299 71.2359 88.0946 70.9409 88.2379ZM70.7512 87.4893C71.1207 87.3098 71.3843 87.0938 71.5419 86.8411C71.6962 86.59 71.756 86.2968 71.7211 85.9614C71.6878 85.6292 71.5705 85.2478 71.3691 84.8171L71.2935 84.6617C71.0746 84.2115 70.8409 83.8545 70.5925 83.5907C70.3408 83.3285 70.0622 83.1716 69.7566 83.1198C69.4477 83.0696 69.1005 83.1381 68.7147 83.3254C68.3841 83.4859 68.1519 83.7087 68.0181 83.9939C67.8843 84.279 67.8411 84.6063 67.8885 84.9757C67.9342 85.3498 68.0578 85.7442 68.2594 86.1588C68.5649 86.7871 68.9306 87.2262 69.3565 87.4758C69.7806 87.7302 70.2456 87.7347 70.7512 87.4893Z" fill="white"/>
        <path d="M60.6009 92.1996C60.1054 92.294 59.6596 92.2653 59.2638 92.1135C58.8679 91.9617 58.5385 91.7055 58.2752 91.3451C58.0126 90.9882 57.8311 90.5463 57.7305 90.0192L57.6262 89.4727L61.6456 88.7066C61.5047 88.026 61.2355 87.5384 60.8381 87.2439C60.4407 86.9493 59.9429 86.8591 59.3447 86.9731C58.9766 87.0433 58.6573 87.139 58.387 87.2601C58.1167 87.3813 57.8417 87.5363 57.5623 87.7253L57.4144 86.9506C57.6832 86.7637 57.9571 86.6125 58.2358 86.4971C58.511 86.3823 58.8452 86.2875 59.2381 86.2126C59.7974 86.1059 60.3074 86.1261 60.7683 86.2728C61.2264 86.4238 61.6126 86.6984 61.9272 87.0968C62.2416 87.495 62.4599 88.0143 62.5821 88.6546C62.7016 89.2807 62.7005 89.8418 62.5788 90.3379C62.4542 90.8382 62.2243 91.2486 61.8893 91.5691C61.5507 91.8902 61.1213 92.1004 60.6009 92.1996ZM60.4738 91.476C60.9446 91.3862 61.2905 91.1608 61.5114 90.7998C61.7323 90.4388 61.8166 89.9773 61.7644 89.4153L58.6848 90.0023C58.7545 90.3483 58.8674 90.642 59.0235 90.8835C59.1769 91.1292 59.3735 91.3044 59.6136 91.409C59.8544 91.5171 60.1411 91.5393 60.4738 91.476Z" fill="white"/>
        <path d="M47.6965 93.1416L48.0348 87.9942L47.188 87.9386L47.3721 85.1358L48.2406 85.1929L48.1063 87.2356L52.2918 87.5103L52.4261 85.4675L53.2837 85.5238L53.0996 88.3266L52.6357 88.2962C52.2669 88.7411 51.9528 89.2348 51.6933 89.7771C51.4337 90.3194 51.2263 90.8922 51.0711 91.4956C50.9156 92.1024 50.8138 92.7183 50.7655 93.343L47.6965 93.1416ZM48.6116 92.4871L50.014 92.5791C50.0808 92.0567 50.1932 91.5281 50.3511 90.9936C50.5055 90.4588 50.6977 89.9517 50.9278 89.4724C51.1577 88.9967 51.416 88.5842 51.7025 88.2349L48.9031 88.0512L48.6116 92.4871Z" fill="white"/>
        <path d="M40.3062 92.1936L41.5091 88.6714C41.5324 88.6032 41.5644 88.5152 41.605 88.4074C41.6445 88.3029 41.6886 88.1904 41.7373 88.07C41.7849 87.9531 41.8313 87.8396 41.8765 87.7294C41.9172 87.6215 41.9532 87.5329 41.9844 87.4637L37.3033 91.1695L36.2597 90.8136L38.1732 85.2107L38.9661 85.4812L37.7929 88.9165C37.7556 89.0255 37.7062 89.1646 37.6446 89.3339C37.583 89.5032 37.5208 89.6684 37.4582 89.8297C37.3943 89.9943 37.3449 90.1221 37.3101 90.2129L41.9793 86.5088L43.028 86.8664L41.1145 92.4692L40.3062 92.1936Z" fill="white"/>
        <path d="M28.0107 87.0545C27.5932 86.7715 27.298 86.4366 27.1252 86.0497C26.9524 85.6628 26.9002 85.2489 26.9687 84.8079C27.0351 84.37 27.2191 83.929 27.5205 83.485L27.833 83.0246L31.2194 85.3198C31.6009 84.7385 31.7551 84.2035 31.682 83.7145C31.609 83.2255 31.3205 82.8102 30.8164 82.4685C30.5062 82.2583 30.2127 82.1007 29.9357 81.9956C29.6586 81.8906 29.3544 81.8062 29.0231 81.7427L29.4661 81.09C29.7885 81.1475 30.0891 81.2338 30.3681 81.3489C30.644 81.462 30.9475 81.6307 31.2786 81.855C31.7498 82.1744 32.0966 82.5487 32.3191 82.9779C32.5365 83.4082 32.6158 83.8752 32.5567 84.3791C32.4977 84.883 32.2852 85.4047 31.9191 85.9441C31.561 86.4716 31.1635 86.8679 30.7267 87.1332C30.2848 87.3993 29.832 87.5275 29.3683 87.5178C28.9017 87.5061 28.4491 87.3517 28.0107 87.0545ZM28.4323 86.4526C28.8289 86.7215 29.233 86.8061 29.6446 86.7065C30.0562 86.6069 30.4421 86.3398 30.8025 85.9053L28.2078 84.1467C28.0126 84.4408 27.8849 84.7284 27.8246 85.0095C27.7594 85.2917 27.7748 85.5545 27.8708 85.798C27.9648 86.0444 28.1519 86.2626 28.4323 86.4526Z" fill="white"/>
        <path d="M20.5968 81.3314L22.4722 79.6998L20.3035 77.2107L18.4282 78.8422L17.839 78.1659L22.3072 74.2786L22.8964 74.9549L20.8784 76.7106L23.047 79.1997L25.0651 77.444L25.6577 78.1244L21.1896 82.0117L20.5968 81.3314Z" fill="white"/>
        <path d="M12.6399 68.8852L13.5053 70.6327L18.1318 68.344L18.5252 69.1379L13.8988 71.4266L14.7527 73.1499L14.0694 73.4878L11.9567 69.2231L12.6399 68.8852Z" fill="white"/>
        <path d="M15.1266 62.585L9.29947 63.6497L9.13701 62.7623L11.5404 62.3233L11.2489 60.7293C11.1583 60.2333 11.1452 59.8146 11.2114 59.4731C11.2759 59.1281 11.4171 58.8553 11.6326 58.6547C11.849 58.4542 12.1379 58.3209 12.4996 58.2548C12.8612 58.1888 13.1886 58.2094 13.4833 58.3168C13.7772 58.4204 14.027 58.6238 14.2327 58.9266C14.4376 59.226 14.5878 59.6378 14.6834 60.162L15.1266 62.585ZM14.2466 61.8288L13.9813 60.3782C13.9013 59.939 13.7592 59.6025 13.5551 59.3689C13.3511 59.1352 13.0661 59.0518 12.7012 59.1185C12.3437 59.1839 12.1175 59.3515 12.0237 59.6211C11.9273 59.8915 11.92 60.2551 12.0041 60.712L12.2743 62.1892L14.2466 61.8288ZM14.0997 56.9687L8.27167 58.0334L8.11003 57.1513L13.938 56.0867L14.0997 56.9687Z" fill="white"/>
    </g>
    <defs>
        <clipPath id="clip0_291_1000">
            <rect width="88.983" height="87.2881" fill="white" transform="matrix(-1 0 0 -1 94.0677 94.0679)"/>
        </clipPath>
    </defs>
</svg>
