<svg width="26" height="26" viewBox="0 0 26 26" fill="none" xmlns="http://www.w3.org/2000/svg">
<g id="ic:baseline-whatsapp">
<path id="Vector" d="M20.6375 5.31919C19.6443 4.31594 18.4613 3.5205 17.1574 2.97925C15.8536 2.43799 14.455 2.16177 13.0433 2.16669C7.12834 2.16669 2.30751 6.98752 2.30751 12.9025C2.30751 14.7984 2.80584 16.64 3.73751 18.265L2.22084 23.8334L7.90834 22.3384C9.47917 23.1942 11.245 23.6492 13.0433 23.6492C18.9583 23.6492 23.7792 18.8284 23.7792 12.9134C23.7792 10.0425 22.6633 7.34502 20.6375 5.31919ZM13.0433 21.8292C11.44 21.8292 9.86917 21.3959 8.49334 20.5834L8.16834 20.3884L4.78834 21.2767L5.68751 17.9834L5.47084 17.6475C4.58007 16.2251 4.10708 14.5809 4.10584 12.9025C4.10584 7.98419 8.11417 3.97586 13.0325 3.97586C15.4158 3.97586 17.6583 4.90752 19.3375 6.59752C20.1689 7.42515 20.8278 8.40957 21.276 9.49373C21.7242 10.5779 21.9527 11.7402 21.9483 12.9134C21.97 17.8317 17.9617 21.8292 13.0433 21.8292ZM17.94 15.1559C17.6692 15.0259 16.3475 14.3759 16.1092 14.2784C15.86 14.1917 15.6867 14.1484 15.5025 14.4084C15.3183 14.6792 14.8092 15.2859 14.6575 15.4592C14.5058 15.6434 14.3433 15.665 14.0725 15.5242C13.8017 15.3942 12.935 15.1017 11.9167 14.1917C11.115 13.4767 10.5842 12.5992 10.4217 12.3284C10.27 12.0575 10.4 11.9167 10.5408 11.7759C10.66 11.6567 10.8117 11.4617 10.9417 11.31C11.0717 11.1584 11.1258 11.0392 11.2125 10.8659C11.2992 10.6817 11.2558 10.53 11.1908 10.4C11.1258 10.27 10.5842 8.94836 10.3675 8.40669C10.1508 7.88669 9.92334 7.95169 9.76084 7.94086H9.24084C9.05667 7.94086 8.77501 8.00586 8.52584 8.27669C8.28751 8.54752 7.59417 9.19752 7.59417 10.5192C7.59417 11.8409 8.55834 13.1192 8.68834 13.2925C8.81834 13.4767 10.5842 16.185 13.2708 17.3442C13.91 17.6259 14.4083 17.7884 14.7983 17.9075C15.4375 18.1134 16.0225 18.0809 16.4883 18.0159C17.0083 17.94 18.0808 17.3659 18.2975 16.7375C18.525 16.1092 18.525 15.5784 18.4492 15.4592C18.3733 15.34 18.2108 15.2859 17.94 15.1559Z" fill="#00AB6D"/>
</g>
</svg>
