<svg width="32" height="31" viewBox="0 0 32 31" fill="none" xmlns="http://www.w3.org/2000/svg">
<path d="M10.3125 26.3125C10.8303 26.3125 11.25 25.8928 11.25 25.375C11.25 24.8572 10.8303 24.4375 10.3125 24.4375C9.79473 24.4375 9.375 24.8572 9.375 25.375C9.375 25.8928 9.79473 26.3125 10.3125 26.3125Z" fill="#00AB6D" stroke="#00AB6D" stroke-width="1.39286" stroke-linecap="round" stroke-linejoin="round"/>
<path d="M23.4375 26.3125C23.9553 26.3125 24.375 25.8928 24.375 25.375C24.375 24.8572 23.9553 24.4375 23.4375 24.4375C22.9197 24.4375 22.5 24.8572 22.5 25.375C22.5 25.8928 22.9197 26.3125 23.4375 26.3125Z" fill="#00AB6D" stroke="#00AB6D" stroke-width="1.39286" stroke-linecap="round" stroke-linejoin="round"/>
<path d="M2.8125 5.6875H6.5625L9.375 21.625H24.375" stroke="#00AB6D" stroke-width="2.32143" stroke-linecap="round" stroke-linejoin="round"/>
<path d="M9.375 17.875H23.9906C24.099 17.8751 24.2041 17.8376 24.288 17.7689C24.3718 17.7002 24.4293 17.6045 24.4506 17.4982L26.1381 9.06074C26.1517 8.99271 26.15 8.9225 26.1332 8.85518C26.1164 8.78786 26.0849 8.72511 26.0409 8.67147C25.9969 8.61782 25.9415 8.57461 25.8788 8.54496C25.816 8.51531 25.7475 8.49995 25.6781 8.5H7.5" stroke="#00AB6D" stroke-width="2.32143" stroke-linecap="round" stroke-linejoin="round"/>
</svg>
