<svg width="30" height="30" viewBox="0 0 30 30" fill="none" xmlns="http://www.w3.org/2000/svg">
<path d="M25.0001 12.5C25.0001 12.1685 24.8684 11.8506 24.634 11.6162C24.3996 11.3817 24.0816 11.25 23.7501 11.25C23.4186 11.25 23.1006 11.3817 22.8662 11.6162C22.6318 11.8506 22.5001 12.1685 22.5001 12.5H25.0001ZM7.5001 12.5C7.5001 12.1685 7.36841 11.8506 7.13399 11.6162C6.89956 11.3817 6.58162 11.25 6.2501 11.25C5.91858 11.25 5.60064 11.3817 5.36622 11.6162C5.1318 11.8506 5.0001 12.1685 5.0001 12.5H7.5001ZM25.3664 15.8838C25.6021 16.1115 25.9179 16.2375 26.2456 16.2346C26.5734 16.2318 26.8869 16.1003 27.1186 15.8686C27.3504 15.6368 27.4819 15.3233 27.4847 14.9955C27.4875 14.6678 27.3616 14.352 27.1339 14.1163L25.3664 15.8838ZM15.0001 3.75004L15.8839 2.86629C15.6494 2.63195 15.3316 2.50031 15.0001 2.50031C14.6686 2.50031 14.3508 2.63195 14.1164 2.86629L15.0001 3.75004ZM2.86635 14.1163C2.74696 14.2316 2.65174 14.3695 2.58622 14.522C2.52071 14.6745 2.48623 14.8386 2.48479 15.0045C2.48335 15.1705 2.51497 15.3351 2.57782 15.4887C2.64068 15.6424 2.73349 15.7819 2.85086 15.8993C2.96822 16.0166 3.10779 16.1095 3.26141 16.1723C3.41503 16.2352 3.57963 16.2668 3.7456 16.2654C3.91158 16.2639 4.0756 16.2294 4.22811 16.1639C4.38061 16.0984 4.51854 16.0032 4.63385 15.8838L2.86635 14.1163ZM8.7501 27.5H21.2501V25H8.7501V27.5ZM25.0001 23.75V12.5H22.5001V23.75H25.0001ZM7.5001 23.75V12.5H5.0001V23.75H7.5001ZM27.1339 14.1163L15.8839 2.86629L14.1164 4.63379L25.3664 15.8838L27.1339 14.1163ZM14.1164 2.86629L2.86635 14.1163L4.63385 15.8838L15.8839 4.63379L14.1164 2.86629ZM21.2501 27.5C22.2447 27.5 23.1985 27.105 23.9018 26.4017C24.605 25.6984 25.0001 24.7446 25.0001 23.75H22.5001C22.5001 24.0816 22.3684 24.3995 22.134 24.6339C21.8996 24.8683 21.5816 25 21.2501 25V27.5ZM8.7501 25C8.41858 25 8.10064 24.8683 7.86622 24.6339C7.6318 24.3995 7.5001 24.0816 7.5001 23.75H5.0001C5.0001 24.7446 5.39519 25.6984 6.09845 26.4017C6.80171 27.105 7.75554 27.5 8.7501 27.5V25Z" fill="#00AB6D"/>
</svg>
